<svg width="18" height="18" viewBox="0 0 18 18" fill="none" xmlns="http://www.w3.org/2000/svg">
<path d="M15.6667 0.666656H2.33335C1.41669 0.666656 0.666687 1.41666 0.666687 2.33332V15.6667C0.666687 16.5833 1.41669 17.3333 2.33335 17.3333H15.6667C16.5834 17.3333 17.3334 16.5833 17.3334 15.6667V2.33332C17.3334 1.41666 16.5834 0.666656 15.6667 0.666656ZM15.6667 15.6667H2.33335V2.33332H15.6667V15.6667ZM14 3.99999H9.83335C8.91669 3.99999 8.16669 4.74999 8.16669 5.66666V7.56666C7.66669 7.85832 7.33335 8.38332 7.33335 8.99999C7.33335 9.91666 8.08335 10.6667 9.00002 10.6667C9.91669 10.6667 10.6667 9.91666 10.6667 8.99999C10.6667 8.38332 10.3334 7.84999 9.83335 7.56666V5.66666H12.3334V12.3333H5.66669V5.66666H7.33335V3.99999H4.00002V14H14V3.99999Z" fill="#4F4F4F"/>
</svg>
